<?xml version="1.0" encoding="utf-8"?>
<!-- Generator: Adobe Illustrator 26.0.3, SVG Export Plug-In . SVG Version: 6.00 Build 0)  -->
<svg version="1.1" id="Layer_1" xmlns="http://www.w3.org/2000/svg" xmlns:xlink="http://www.w3.org/1999/xlink" x="0px" y="0px"
	 viewBox="0 0 120 120" style="enable-background:new 0 0 120 120;" xml:space="preserve">
<style type="text/css">
	.st0{fill:#262421;}
	.st1{fill:none;stroke:#CECAC6;stroke-width:12;stroke-linecap:round;stroke-linejoin:round;stroke-miterlimit:10;}
	.st2{fill:none;stroke:#BFDEAB;stroke-width:7;stroke-linecap:round;stroke-linejoin:round;stroke-miterlimit:10;}
	.st3{fill:none;stroke:#7EA3D5;stroke-width:7;stroke-linecap:round;stroke-linejoin:round;stroke-miterlimit:10;}
	.st4{fill:none;stroke:#FBB582;stroke-width:7;stroke-linecap:round;stroke-linejoin:round;stroke-miterlimit:10;}
	.st5{clip-path:url(#SVGID_00000049915459636676818240000007483896127826272939_);fill:#262421;}
	
		.st6{clip-path:url(#SVGID_00000049915459636676818240000007483896127826272939_);fill:none;stroke:#E7A3C8;stroke-width:7;stroke-linecap:round;stroke-linejoin:round;stroke-miterlimit:10;}
	.st7{fill:none;stroke:#CECAC6;stroke-width:7;stroke-linecap:round;stroke-linejoin:round;stroke-miterlimit:10;}
	.st8{fill:none;stroke:#EFF0A6;stroke-width:7;stroke-linecap:round;stroke-linejoin:round;stroke-miterlimit:10;}
	.st9{fill:#CECAC6;}
</style>
<path class="st0" d="M76.5,109.5h-33c-18.2,0-33-14.8-33-33v-33c0-18.2,14.8-33,33-33h33c18.2,0,33,14.8,33,33v33
	C109.5,94.7,94.7,109.5,76.5,109.5z"/>
<g>
	<path class="st8" d="M73.4,90.8H46.3c-9.6,0-17.4-7.8-17.4-17.4V46.3c0-9.6,7.8-17.4,17.4-17.4h27.1c9.6,0,17.4,7.8,17.4,17.4v27.1
		C90.8,83,83,90.8,73.4,90.8z"/>
	<line class="st8" x1="59.8" y1="28.9" x2="59.8" y2="90.8"/>
	<line class="st8" x1="90.8" y1="59.8" x2="28.9" y2="59.8"/>
</g>
</svg>
