<?xml version="1.0" encoding="utf-8"?>
<!-- Generator: Adobe Illustrator 27.9.1, SVG Export Plug-In . SVG Version: 6.00 Build 0)  -->
<svg version="1.1" id="Layer_1" xmlns="http://www.w3.org/2000/svg" xmlns:xlink="http://www.w3.org/1999/xlink" x="0px" y="0px"
	 viewBox="0 0 120 120" style="enable-background:new 0 0 120 120;" xml:space="preserve">
<style type="text/css">
	.st0{fill:#262421;}
	.st1{fill:none;stroke:#CECAC6;stroke-width:7;stroke-linecap:round;stroke-linejoin:round;stroke-miterlimit:10;}
</style>
<path class="st0" d="M76.5,109.5h-33c-18.2,0-33-14.8-33-33v-33c0-18.2,14.8-33,33-33h33c18.2,0,33,14.8,33,33v33
	C109.5,94.7,94.7,109.5,76.5,109.5z"/>
<path class="st1" d="M43.5,53.88h27.37c3.11,0,5.63,2.52,5.63,5.63v11.35c0,3.11-2.52,5.63-5.63,5.63H49.13
	c-3.11,0-5.63-2.52-5.63-5.63V53.88z"/>
<path class="st1" d="M43.5,53.88V48.3c0-2.65,2.15-4.8,4.8-4.8h6.9c2.65,0,4.8,2.15,4.8,4.8v5.58"/>
</svg>
